<svg xmlns="http://www.w3.org/2000/svg" xmlns:xlink="http://www.w3.org/1999/xlink" width="6912" zoomAndPan="magnify" viewBox="0 0 5184 1871.999922" height="2496" preserveAspectRatio="xMidYMid meet" version="1.0"><defs><g/><clipPath id="60a85bc5bf"><path d="M 691 381 L 4452 381 L 4452 1412 L 691 1412 Z M 691 381 " clip-rule="nonzero"/></clipPath><clipPath id="cfc0cd11fd"><path d="M 648.773438 658.261719 L 4470.167969 346.410156 L 4534.859375 1139.144531 L 713.464844 1450.996094 Z M 648.773438 658.261719 " clip-rule="nonzero"/></clipPath><clipPath id="c9696d7e97"><path d="M 648.773438 658.261719 L 4470.167969 346.410156 L 4534.859375 1139.144531 L 713.464844 1450.996094 Z M 648.773438 658.261719 " clip-rule="nonzero"/></clipPath></defs><g clip-path="url(#60a85bc5bf)"><g clip-path="url(#cfc0cd11fd)"><g clip-path="url(#c9696d7e97)"><path fill="#d8cca3" d="M 3739.683594 553.597656 C 3793.957031 546.414062 3847.832031 537.820312 3901.9375 530.0625 C 4010.46875 515.171875 4117.5625 496.402344 4225.289062 479.25 C 4222.273438 507.46875 4219.644531 536.777344 4237.292969 559.410156 C 4237.292969 559.410156 4253.898438 555.878906 4274.328125 550.160156 C 4294.824219 544.703125 4319.429688 538.160156 4335.832031 533.789062 C 4480.046875 563.320312 4468.523438 661.421875 4413.039062 744.160156 C 4398.300781 761.882812 4381.660156 781.882812 4362.558594 802.492188 C 4345.210938 804.292969 4327.847656 806.089844 4310.675781 807.875 C 4232.507812 816.402344 4155.632812 826.476562 4078.308594 839.367188 C 4001.300781 850.394531 3924.132812 863.019531 3845.980469 876.4375 C 3689.800781 901.476562 3644.375 919.082031 3474.644531 935.082031 C 3235.964844 950.792969 3709.835938 897.234375 3474.644531 935.082031 C 3754.914062 902.289062 3300.429688 969.617188 3585.101562 930.675781 C 3656.394531 921.253906 3612.871094 921.195312 3683.695312 911.839844 C 3754.773438 903.433594 3825.527344 895.050781 3895.863281 886.738281 C 3966.476562 878.398438 4036.558594 872.398438 4106.746094 865.550781 C 4177.082031 858.148438 4246.757812 852.976562 4316.757812 847.941406 C 4267.292969 891.820312 4206.171875 930.554688 4129.652344 948.078125 C 3946 975.226562 3764.890625 1001.992188 3585.328125 1028.527344 C 3583.414062 1015.359375 3445.097656 1050.925781 3321.691406 1068.988281 C 3198.28125 1086.171875 3074.152344 1071.800781 2951.410156 1084.691406 C 2705.902344 1111.261719 2222.308594 1227.378906 2219.628906 1236.414062 C 2218.394531 1236.632812 2217.203125 1236.835938 2216.054688 1237.03125 C 2217.203125 1236.835938 2218.394531 1236.632812 2219.628906 1236.414062 C 2217.199219 1244.359375 2219.984375 1249.800781 2251.375 1245.015625 C 2219.984375 1249.800781 2217.199219 1244.371094 2219.628906 1236.414062 C 2714.589844 1147.699219 3065.214844 1096.148438 3564.910156 1031.722656 C 3178.003906 1089.445312 2914.921875 1141.746094 2534.863281 1204.699219 C 2154.859375 1267.453125 1772.710938 1330.78125 1377.871094 1387.472656 C 1344.257812 1392.289062 1276.890625 1401.925781 1243.21875 1406.75 C 1103.902344 1386.550781 967.554688 1392.40625 833.167969 1411.132812 C 859.066406 1340.863281 709.132812 1228.597656 981.351562 1217.144531 C 979.8125 1204.050781 976.726562 1177.8125 975.1875 1164.71875 C 836.539062 1150.871094 737.835938 1101.207031 703.058594 1044.636719 C 686.882812 1016.421875 686.117188 985.742188 708.636719 956.5625 C 732.125 927.113281 773.089844 899.800781 838.953125 877.273438 C 1135 782.644531 1543.992188 777.554688 1909.527344 696.132812 C 2176.183594 643.023438 2442.382812 588.675781 2713.191406 572.007812 C 3086.253906 552.371094 3370.515625 481.484375 3742.597656 462.984375 C 3809.773438 456.398438 3899.492188 431.160156 3981.527344 411.199219 C 4063.078125 390.378906 4135.964844 373.050781 4172.191406 385.304688 C 4222.371094 393.3125 4229.339844 420.453125 4227.65625 452.863281 C 4119.183594 474.964844 4011.5 498.917969 3902.46875 518.316406 C 3848.101562 528.332031 3794.0625 539.074219 3739.6875 548.25 C 3685.300781 557.238281 3631.039062 566.1875 3576.941406 575.121094 " fill-opacity="1" fill-rule="nonzero"/></g></g></g><g fill="#fafafa" fill-opacity="1"><g transform="translate(1233.105478, 1143.19221)"><g><path d="M 309.878906 -380.042969 C 394.660156 -390.761719 466.769531 -439.484375 466.769531 -534.984375 C 466.769531 -646.070312 348.859375 -688.949219 205.613281 -688.949219 L 34.105469 -688.949219 L 34.105469 0 L 111.089844 0 L 111.089844 -546.675781 C 119.859375 -505.75 131.554688 -474.566406 149.09375 -446.304688 C 178.328125 -400.507812 220.230469 -376.144531 267.980469 -376.144531 C 488.207031 -376.144531 267.980469 0 622.683594 0 L 622.683594 -7.796875 C 557.394531 -7.796875 521.339844 -81.855469 484.308594 -166.632812 C 445.332031 -258.234375 411.226562 -356.65625 309.878906 -380.042969 Z M 389.785156 -534.984375 C 389.785156 -432.664062 337.164062 -386.863281 274.800781 -382.964844 L 267.980469 -382.964844 C 223.152344 -382.964844 183.199219 -411.226562 155.914062 -451.179688 C 128.628906 -494.054688 111.089844 -549.601562 111.089844 -620.734375 L 111.089844 -681.152344 L 205.613281 -681.152344 C 300.136719 -681.152344 389.785156 -646.070312 389.785156 -534.984375 Z M 389.785156 -534.984375 "/></g></g></g><g fill="#fafafa" fill-opacity="1"><g transform="translate(1889.8954, 1143.19221)"><g><path d="M 109.140625 -458.972656 C 137.398438 -343.988281 254.335938 -349.832031 310.855469 -285.519531 L 310.855469 -362.5 C 177.351562 -362.5 109.140625 -389.785156 109.140625 -523.289062 L 109.140625 -681.152344 L 189.046875 -681.152344 C 307.933594 -681.152344 358.605469 -676.28125 427.792969 -610.015625 L 427.792969 -687.972656 L 34.105469 -687.972656 L 34.105469 0 L 421.945312 0 L 444.355469 -144.222656 C 409.277344 -45.800781 358.605469 -7.796875 273.824219 -7.796875 L 109.140625 -7.796875 Z M 109.140625 -458.972656 "/></g></g></g><g fill="#fafafa" fill-opacity="1"><g transform="translate(2368.358191, 1143.19221)"><g><path d="M 507.699219 0 L 589.554688 0 L 298.1875 -687.972656 L 291.367188 -687.972656 C 217.304688 -562.269531 129.605469 -384.914062 77.957031 -245.566406 C 54.570312 -183.199219 40.925781 -128.628906 36.054688 -85.753906 C 31.183594 -41.902344 41.902344 -12.667969 68.210938 -0.972656 C 75.035156 4.871094 77.957031 4.871094 83.804688 5.847656 C 127.65625 7.796875 144.222656 -28.257812 162.734375 -76.984375 C 193.917969 -148.117188 231.921875 -248.488281 397.582031 -264.082031 Z M 394.660156 -270.902344 C 226.078125 -254.335938 187.097656 -152.015625 154.941406 -78.933594 C 139.347656 -34.105469 123.757812 0 84.777344 -2.921875 C 79.90625 -5.847656 76.984375 -5.847656 71.136719 -7.796875 C 47.75 -15.589844 40.925781 -45.800781 42.875 -85.753906 C 47.75 -127.65625 61.390625 -181.25 84.777344 -243.617188 C 125.707031 -356.65625 191.96875 -489.183594 251.414062 -604.167969 Z M 394.660156 -270.902344 "/></g></g></g><g fill="#fafafa" fill-opacity="1"><g transform="translate(2992.016281, 1143.19221)"><g><path d="M 446.304688 -144.222656 C 410.25 -45.800781 360.554688 -7.796875 276.75 -7.796875 L 112.0625 -7.796875 L 112.0625 -687.972656 L 34.105469 -687.972656 L 34.105469 0 L 422.917969 0 Z M 446.304688 -144.222656 "/></g></g></g><g fill="#fafafa" fill-opacity="1"><g transform="translate(3472.427864, 1143.19221)"><g><path d="M 109.140625 -458.972656 C 137.398438 -343.988281 254.335938 -349.832031 310.855469 -285.519531 L 310.855469 -362.5 C 177.351562 -362.5 109.140625 -389.785156 109.140625 -523.289062 L 109.140625 -681.152344 L 189.046875 -681.152344 C 307.933594 -681.152344 358.605469 -676.28125 427.792969 -610.015625 L 427.792969 -687.972656 L 34.105469 -687.972656 L 34.105469 0 L 421.945312 0 L 444.355469 -144.222656 C 409.277344 -45.800781 358.605469 -7.796875 273.824219 -7.796875 L 109.140625 -7.796875 Z M 109.140625 -458.972656 "/></g></g></g><g fill="#fafafa" fill-opacity="1"><g transform="translate(1714.701062, 1508.365315)"><g><path d="M 119.875 -69.125 L 133.90625 -69.125 L 133.90625 -16.390625 C 127.457031 -10.734375 119.820312 -6.390625 111 -3.359375 C 102.175781 -0.328125 92.890625 1.1875 83.140625 1.1875 C 69.316406 1.1875 56.875 -1.835938 45.8125 -7.890625 C 34.757812 -13.953125 26.070312 -22.347656 19.75 -33.078125 C 13.425781 -43.804688 10.265625 -55.820312 10.265625 -69.125 C 10.265625 -82.425781 13.425781 -94.441406 19.75 -105.171875 C 26.070312 -115.898438 34.757812 -124.289062 45.8125 -130.34375 C 56.875 -136.40625 69.382812 -139.4375 83.34375 -139.4375 C 93.875 -139.4375 103.550781 -137.753906 112.375 -134.390625 C 121.195312 -131.035156 128.632812 -126.066406 134.6875 -119.484375 L 125.609375 -110.203125 C 114.679688 -121.003906 100.789062 -126.40625 83.9375 -126.40625 C 72.75 -126.40625 62.644531 -123.9375 53.625 -119 C 44.601562 -114.0625 37.523438 -107.210938 32.390625 -98.453125 C 27.253906 -89.691406 24.6875 -79.914062 24.6875 -69.125 C 24.6875 -58.332031 27.253906 -48.585938 32.390625 -39.890625 C 37.523438 -31.203125 44.566406 -24.351562 53.515625 -19.34375 C 62.472656 -14.34375 72.546875 -11.84375 83.734375 -11.84375 C 97.953125 -11.84375 110 -15.398438 119.875 -22.515625 Z M 119.875 -69.125 "/></g></g></g><g fill="#fafafa" fill-opacity="1"><g transform="translate(1914.964846, 1508.365315)"><g><path d="M 22.515625 -138.25 L 37.125 -138.25 L 37.125 0 L 22.515625 0 Z M 22.515625 -138.25 "/></g></g></g><g fill="#fafafa" fill-opacity="1"><g transform="translate(2022.207512, 1508.365315)"><g><path d="M 82.953125 1.1875 C 69.253906 1.1875 56.84375 -1.875 45.71875 -8 C 34.59375 -14.125 25.898438 -22.515625 19.640625 -33.171875 C 13.390625 -43.835938 10.265625 -55.820312 10.265625 -69.125 C 10.265625 -82.425781 13.390625 -94.40625 19.640625 -105.0625 C 25.898438 -115.726562 34.59375 -124.125 45.71875 -130.25 C 56.84375 -136.375 69.253906 -139.4375 82.953125 -139.4375 C 96.640625 -139.4375 108.976562 -136.40625 119.96875 -130.34375 C 130.96875 -124.289062 139.628906 -115.898438 145.953125 -105.171875 C 152.273438 -94.441406 155.4375 -82.425781 155.4375 -69.125 C 155.4375 -55.820312 152.273438 -43.804688 145.953125 -33.078125 C 139.628906 -22.347656 130.96875 -13.953125 119.96875 -7.890625 C 108.976562 -1.835938 96.640625 1.1875 82.953125 1.1875 Z M 82.953125 -11.84375 C 93.878906 -11.84375 103.753906 -14.3125 112.578125 -19.25 C 121.398438 -24.1875 128.3125 -31.035156 133.3125 -39.796875 C 138.3125 -48.554688 140.8125 -58.332031 140.8125 -69.125 C 140.8125 -79.914062 138.3125 -89.691406 133.3125 -98.453125 C 128.3125 -107.210938 121.398438 -114.0625 112.578125 -119 C 103.753906 -123.9375 93.878906 -126.40625 82.953125 -126.40625 C 72.023438 -126.40625 62.113281 -123.9375 53.21875 -119 C 44.332031 -114.0625 37.351562 -107.210938 32.28125 -98.453125 C 27.21875 -89.691406 24.6875 -79.914062 24.6875 -69.125 C 24.6875 -58.332031 27.21875 -48.554688 32.28125 -39.796875 C 37.351562 -31.035156 44.332031 -24.1875 53.21875 -19.25 C 62.113281 -14.3125 72.023438 -11.84375 82.953125 -11.84375 Z M 82.953125 -11.84375 "/></g></g></g><g fill="#fafafa" fill-opacity="1"><g transform="translate(2235.506115, 1508.365315)"><g><path d="M 22.515625 -138.25 L 37.125 -138.25 L 37.125 0 L 22.515625 0 Z M 22.515625 -138.25 "/></g></g></g><g fill="#fafafa" fill-opacity="1"><g transform="translate(2342.748781, 1508.365315)"><g><path d="M 120.28125 -12.640625 L 120.28125 0 L 22.515625 0 L 22.515625 -138.25 L 117.3125 -138.25 L 117.3125 -125.609375 L 37.125 -125.609375 L 37.125 -76.4375 L 108.625 -76.4375 L 108.625 -63.984375 L 37.125 -63.984375 L 37.125 -12.640625 Z M 120.28125 -12.640625 "/></g></g></g><g fill="#fafafa" fill-opacity="1"><g transform="translate(2522.472871, 1508.365315)"><g><path d="M 22.515625 -138.25 L 37.125 -138.25 L 37.125 -12.640625 L 114.546875 -12.640625 L 114.546875 0 L 22.515625 0 Z M 22.515625 -138.25 "/></g></g></g><g fill="#fafafa" fill-opacity="1"><g transform="translate(2686.397208, 1508.365315)"><g><path d="M 22.515625 -138.25 L 37.125 -138.25 L 37.125 -12.640625 L 114.546875 -12.640625 L 114.546875 0 L 22.515625 0 Z M 22.515625 -138.25 "/></g></g></g><g fill="#fafafa" fill-opacity="1"><g transform="translate(2850.321544, 1508.365315)"><g><path d="M 120.28125 -12.640625 L 120.28125 0 L 22.515625 0 L 22.515625 -138.25 L 117.3125 -138.25 L 117.3125 -125.609375 L 37.125 -125.609375 L 37.125 -76.4375 L 108.625 -76.4375 L 108.625 -63.984375 L 37.125 -63.984375 L 37.125 -12.640625 Z M 120.28125 -12.640625 "/></g></g></g><g fill="#fafafa" fill-opacity="1"><g transform="translate(3030.045679, 1508.365315)"><g><path d="M 116.921875 0 L 85.3125 -44.4375 C 81.757812 -44.039062 78.078125 -43.84375 74.265625 -43.84375 L 37.125 -43.84375 L 37.125 0 L 22.515625 0 L 22.515625 -138.25 L 74.265625 -138.25 C 91.898438 -138.25 105.722656 -134.035156 115.734375 -125.609375 C 125.742188 -117.179688 130.75 -105.59375 130.75 -90.84375 C 130.75 -80.050781 128.015625 -70.9375 122.546875 -63.5 C 117.085938 -56.0625 109.285156 -50.695312 99.140625 -47.40625 L 132.921875 0 Z M 73.859375 -56.28125 C 87.554688 -56.28125 98.023438 -59.304688 105.265625 -65.359375 C 112.503906 -71.421875 116.125 -79.914062 116.125 -90.84375 C 116.125 -102.039062 112.503906 -110.632812 105.265625 -116.625 C 98.023438 -122.613281 87.554688 -125.609375 73.859375 -125.609375 L 37.125 -125.609375 L 37.125 -56.28125 Z M 73.859375 -56.28125 "/></g></g></g><g fill="#fafafa" fill-opacity="1"><g transform="translate(3220.434611, 1508.365315)"><g><path d="M 22.515625 -138.25 L 37.125 -138.25 L 37.125 0 L 22.515625 0 Z M 22.515625 -138.25 "/></g></g></g><g fill="#fafafa" fill-opacity="1"><g transform="translate(3327.677369, 1508.365315)"><g><path d="M 109.21875 -36.9375 L 32.1875 -36.9375 L 15.609375 0 L 0.390625 0 L 63.59375 -138.25 L 78.015625 -138.25 L 141.21875 0 L 125.8125 0 Z M 103.890625 -48.78125 L 70.703125 -123.046875 L 37.53125 -48.78125 Z M 103.890625 -48.78125 "/></g></g></g></svg>