<svg xmlns="http://www.w3.org/2000/svg" xmlns:xlink="http://www.w3.org/1999/xlink" width="6912" zoomAndPan="magnify" viewBox="0 0 5184 1871.999922" height="2496" preserveAspectRatio="xMidYMid meet" version="1.0"><defs><g/><clipPath id="d76c8f41af"><path d="M 691 352 L 4452 352 L 4452 1383 L 691 1383 Z M 691 352 " clip-rule="nonzero"/></clipPath><clipPath id="0b2db74a67"><path d="M 648.773438 629.554688 L 4470.167969 317.703125 L 4534.859375 1110.441406 L 713.464844 1422.289062 Z M 648.773438 629.554688 " clip-rule="nonzero"/></clipPath><clipPath id="e3c96f33f0"><path d="M 648.773438 629.554688 L 4470.167969 317.703125 L 4534.859375 1110.441406 L 713.464844 1422.289062 Z M 648.773438 629.554688 " clip-rule="nonzero"/></clipPath></defs><g clip-path="url(#d76c8f41af)"><g clip-path="url(#0b2db74a67)"><g clip-path="url(#e3c96f33f0)"><path fill="#d8cca3" d="M 3739.683594 524.890625 C 3793.957031 517.707031 3847.832031 509.117188 3901.9375 501.359375 C 4010.46875 486.464844 4117.5625 467.699219 4225.289062 450.542969 C 4222.273438 478.765625 4219.644531 508.074219 4237.292969 530.707031 C 4237.292969 530.707031 4253.898438 527.171875 4274.328125 521.457031 C 4294.824219 516 4319.429688 509.457031 4335.832031 505.085938 C 4480.046875 534.613281 4468.523438 632.714844 4413.039062 715.453125 C 4398.300781 733.175781 4381.660156 753.175781 4362.558594 773.785156 C 4345.210938 775.585938 4327.847656 777.386719 4310.675781 779.167969 C 4232.507812 787.699219 4155.632812 797.769531 4078.308594 810.660156 C 4001.300781 821.6875 3924.132812 834.316406 3845.980469 847.730469 C 3689.800781 872.769531 3644.375 890.375 3474.644531 906.378906 C 3235.964844 922.085938 3709.835938 868.527344 3474.644531 906.378906 C 3754.914062 873.582031 3300.429688 940.914062 3585.101562 901.972656 C 3656.394531 892.546875 3612.871094 892.492188 3683.695312 883.132812 C 3754.773438 874.726562 3825.527344 866.347656 3895.863281 858.03125 C 3966.476562 849.691406 4036.558594 843.691406 4106.746094 836.84375 C 4177.082031 829.441406 4246.757812 824.269531 4316.757812 819.234375 C 4267.292969 863.113281 4206.171875 901.847656 4129.652344 919.371094 C 3946 946.519531 3764.890625 973.285156 3585.328125 999.820312 C 3583.414062 986.652344 3445.097656 1022.21875 3321.691406 1040.285156 C 3198.28125 1057.464844 3074.152344 1043.097656 2951.410156 1055.984375 C 2705.902344 1082.554688 2222.308594 1198.671875 2219.628906 1207.710938 C 2218.394531 1207.929688 2217.203125 1208.128906 2216.054688 1208.324219 C 2217.203125 1208.128906 2218.394531 1207.929688 2219.628906 1207.710938 C 2217.199219 1215.652344 2219.984375 1221.09375 2251.375 1216.308594 C 2219.984375 1221.09375 2217.199219 1215.667969 2219.628906 1207.710938 C 2714.589844 1118.996094 3065.214844 1067.441406 3564.910156 1003.019531 C 3178.003906 1060.742188 2914.921875 1113.042969 2534.863281 1175.992188 C 2154.859375 1238.746094 1772.710938 1302.074219 1377.871094 1358.765625 C 1344.257812 1363.585938 1276.890625 1373.21875 1243.21875 1378.042969 C 1103.902344 1357.84375 967.554688 1363.703125 833.167969 1382.425781 C 859.066406 1312.160156 709.132812 1199.890625 981.351562 1188.441406 C 979.8125 1175.34375 976.726562 1149.109375 975.1875 1136.011719 C 836.539062 1122.164062 737.835938 1072.503906 703.058594 1015.929688 C 686.882812 987.714844 686.117188 957.035156 708.636719 927.855469 C 732.125 898.40625 773.089844 871.09375 838.953125 848.566406 C 1135 753.941406 1543.992188 748.847656 1909.527344 667.425781 C 2176.183594 614.320312 2442.382812 559.96875 2713.191406 543.300781 C 3086.253906 523.664062 3370.515625 452.777344 3742.597656 434.28125 C 3809.773438 427.691406 3899.492188 402.453125 3981.527344 382.492188 C 4063.078125 361.671875 4135.964844 344.34375 4172.191406 356.597656 C 4222.371094 364.605469 4229.339844 391.746094 4227.65625 424.15625 C 4119.183594 446.261719 4011.5 470.214844 3902.46875 489.609375 C 3848.101562 499.625 3794.0625 510.367188 3739.6875 519.546875 C 3685.300781 528.535156 3631.039062 537.480469 3576.941406 546.417969 " fill-opacity="1" fill-rule="nonzero"/></g></g></g><g fill="#212121" fill-opacity="1"><g transform="translate(1233.355661, 1105.253944)"><g><path d="M 309.863281 -380.019531 C 394.636719 -390.738281 466.742188 -439.460938 466.742188 -534.953125 C 466.742188 -646.035156 348.839844 -688.910156 205.601562 -688.910156 L 34.105469 -688.910156 L 34.105469 0 L 111.082031 0 L 111.082031 -546.644531 C 119.851562 -505.71875 131.546875 -474.539062 149.085938 -446.28125 C 178.316406 -400.484375 220.21875 -376.121094 267.964844 -376.121094 C 488.179688 -376.121094 267.964844 0 622.648438 0 L 622.648438 -7.796875 C 557.363281 -7.796875 521.308594 -81.851562 484.28125 -166.625 C 445.304688 -258.21875 411.203125 -356.632812 309.863281 -380.019531 Z M 389.765625 -534.953125 C 389.765625 -432.636719 337.144531 -386.839844 274.785156 -382.945312 L 267.964844 -382.945312 C 223.140625 -382.945312 183.1875 -411.203125 155.90625 -451.152344 C 128.621094 -494.027344 111.082031 -549.566406 111.082031 -620.699219 L 111.082031 -681.113281 L 205.601562 -681.113281 C 300.117188 -681.113281 389.765625 -646.035156 389.765625 -534.953125 Z M 389.765625 -534.953125 "/></g></g></g><g fill="#212121" fill-opacity="1"><g transform="translate(1889.993586, 1105.253944)"><g><path d="M 109.132812 -458.949219 C 137.390625 -343.96875 254.320312 -349.8125 310.835938 -285.503906 L 310.835938 -362.480469 C 177.34375 -362.480469 109.132812 -389.765625 109.132812 -523.257812 L 109.132812 -681.113281 L 189.035156 -681.113281 C 307.914062 -681.113281 358.582031 -676.242188 427.765625 -609.980469 L 427.765625 -687.933594 L 34.105469 -687.933594 L 34.105469 0 L 421.921875 0 L 444.332031 -144.210938 C 409.253906 -45.796875 358.582031 -7.796875 273.808594 -7.796875 L 109.132812 -7.796875 Z M 109.132812 -458.949219 "/></g></g></g><g fill="#212121" fill-opacity="1"><g transform="translate(2368.345478, 1105.253944)"><g><path d="M 507.667969 0 L 589.519531 0 L 298.167969 -687.933594 L 291.347656 -687.933594 C 217.292969 -562.234375 129.597656 -384.890625 77.953125 -245.550781 C 54.566406 -183.1875 40.925781 -128.621094 36.054688 -85.75 C 31.179688 -41.898438 41.898438 -12.667969 68.207031 -0.972656 C 75.03125 4.871094 77.953125 4.871094 83.800781 5.847656 C 127.648438 7.796875 144.210938 -28.257812 162.726562 -76.976562 C 193.90625 -148.109375 231.910156 -248.476562 397.558594 -264.066406 Z M 394.636719 -270.886719 C 226.0625 -254.320312 187.085938 -152.007812 154.929688 -78.925781 C 139.339844 -34.105469 123.75 0 84.773438 -2.921875 C 79.902344 -5.847656 76.976562 -5.847656 71.132812 -7.796875 C 47.746094 -15.589844 40.925781 -45.796875 42.875 -85.75 C 47.746094 -127.648438 61.386719 -181.242188 84.773438 -243.601562 C 125.699219 -356.632812 191.957031 -489.15625 251.398438 -604.136719 Z M 394.636719 -270.886719 "/></g></g></g><g fill="#212121" fill-opacity="1"><g transform="translate(2991.859165, 1105.253944)"><g><path d="M 446.28125 -144.210938 C 410.226562 -45.796875 360.53125 -7.796875 276.734375 -7.796875 L 112.058594 -7.796875 L 112.058594 -687.933594 L 34.105469 -687.933594 L 34.105469 0 L 422.894531 0 Z M 446.28125 -144.210938 "/></g></g></g><g fill="#212121" fill-opacity="1"><g transform="translate(3472.159607, 1105.253944)"><g><path d="M 109.132812 -458.949219 C 137.390625 -343.96875 254.320312 -349.8125 310.835938 -285.503906 L 310.835938 -362.480469 C 177.34375 -362.480469 109.132812 -389.765625 109.132812 -523.257812 L 109.132812 -681.113281 L 189.035156 -681.113281 C 307.914062 -681.113281 358.582031 -676.242188 427.765625 -609.980469 L 427.765625 -687.933594 L 34.105469 -687.933594 L 34.105469 0 L 421.921875 0 L 444.332031 -144.210938 C 409.253906 -45.796875 358.582031 -7.796875 273.808594 -7.796875 L 109.132812 -7.796875 Z M 109.132812 -458.949219 "/></g></g></g><g fill="#212121" fill-opacity="1"><g transform="translate(1715.522689, 1464.212391)"><g><path d="M 119.8125 -69.09375 L 133.828125 -69.09375 L 133.828125 -16.390625 C 127.378906 -10.722656 119.742188 -6.375 110.921875 -3.34375 C 102.109375 -0.320312 92.832031 1.1875 83.09375 1.1875 C 69.28125 1.1875 56.847656 -1.835938 45.796875 -7.890625 C 34.742188 -13.941406 26.054688 -22.332031 19.734375 -33.0625 C 13.421875 -43.789062 10.265625 -55.800781 10.265625 -69.09375 C 10.265625 -82.375 13.421875 -94.378906 19.734375 -105.109375 C 26.054688 -115.835938 34.742188 -124.226562 45.796875 -130.28125 C 56.847656 -136.332031 69.347656 -139.359375 83.296875 -139.359375 C 93.828125 -139.359375 103.5 -137.679688 112.3125 -134.328125 C 121.132812 -130.972656 128.570312 -126.003906 134.625 -119.421875 L 125.546875 -110.140625 C 114.617188 -120.929688 100.734375 -126.328125 83.890625 -126.328125 C 72.703125 -126.328125 62.597656 -123.859375 53.578125 -118.921875 C 44.566406 -113.992188 37.492188 -107.148438 32.359375 -98.390625 C 27.234375 -89.640625 24.671875 -79.875 24.671875 -69.09375 C 24.671875 -58.300781 27.234375 -48.5625 32.359375 -39.875 C 37.492188 -31.1875 44.535156 -24.34375 53.484375 -19.34375 C 62.441406 -14.34375 72.507812 -11.84375 83.6875 -11.84375 C 97.90625 -11.84375 109.945312 -15.394531 119.8125 -22.5 Z M 119.8125 -69.09375 "/></g></g></g><g fill="#212121" fill-opacity="1"><g transform="translate(1915.596706, 1464.212391)"><g><path d="M 22.5 -138.171875 L 37.109375 -138.171875 L 37.109375 0 L 22.5 0 Z M 22.5 -138.171875 "/></g></g></g><g fill="#212121" fill-opacity="1"><g transform="translate(2022.765224, 1464.212391)"><g><path d="M 82.90625 1.1875 C 69.21875 1.1875 56.8125 -1.867188 45.6875 -7.984375 C 34.570312 -14.109375 25.890625 -22.5 19.640625 -33.15625 C 13.390625 -43.820312 10.265625 -55.800781 10.265625 -69.09375 C 10.265625 -82.375 13.390625 -94.34375 19.640625 -105 C 25.890625 -115.664062 34.570312 -124.054688 45.6875 -130.171875 C 56.8125 -136.296875 69.21875 -139.359375 82.90625 -139.359375 C 96.59375 -139.359375 108.925781 -136.332031 119.90625 -130.28125 C 130.894531 -124.226562 139.546875 -115.835938 145.859375 -105.109375 C 152.179688 -94.378906 155.34375 -82.375 155.34375 -69.09375 C 155.34375 -55.800781 152.179688 -43.789062 145.859375 -33.0625 C 139.546875 -22.332031 130.894531 -13.941406 119.90625 -7.890625 C 108.925781 -1.835938 96.59375 1.1875 82.90625 1.1875 Z M 82.90625 -11.84375 C 93.820312 -11.84375 103.6875 -14.304688 112.5 -19.234375 C 121.320312 -24.171875 128.234375 -31.015625 133.234375 -39.765625 C 138.234375 -48.523438 140.734375 -58.300781 140.734375 -69.09375 C 140.734375 -79.875 138.234375 -89.640625 133.234375 -98.390625 C 128.234375 -107.148438 121.320312 -113.992188 112.5 -118.921875 C 103.6875 -123.859375 93.820312 -126.328125 82.90625 -126.328125 C 71.976562 -126.328125 62.070312 -123.859375 53.1875 -118.921875 C 44.3125 -113.992188 37.335938 -107.148438 32.265625 -98.390625 C 27.203125 -89.640625 24.671875 -79.875 24.671875 -69.09375 C 24.671875 -58.300781 27.203125 -48.523438 32.265625 -39.765625 C 37.335938 -31.015625 44.3125 -24.171875 53.1875 -19.234375 C 62.070312 -14.304688 71.976562 -11.84375 82.90625 -11.84375 Z M 82.90625 -11.84375 "/></g></g></g><g fill="#212121" fill-opacity="1"><g transform="translate(2235.857764, 1464.212391)"><g><path d="M 22.5 -138.171875 L 37.109375 -138.171875 L 37.109375 0 L 22.5 0 Z M 22.5 -138.171875 "/></g></g></g><g fill="#212121" fill-opacity="1"><g transform="translate(2343.026261, 1464.212391)"><g><path d="M 120.203125 -12.640625 L 120.203125 0 L 22.5 0 L 22.5 -138.171875 L 117.25 -138.171875 L 117.25 -125.546875 L 37.109375 -125.546875 L 37.109375 -76.390625 L 108.5625 -76.390625 L 108.5625 -63.953125 L 37.109375 -63.953125 L 37.109375 -12.640625 Z M 120.203125 -12.640625 "/></g></g></g><g fill="#212121" fill-opacity="1"><g transform="translate(2522.586134, 1464.212391)"><g><path d="M 22.5 -138.171875 L 37.109375 -138.171875 L 37.109375 -12.640625 L 114.484375 -12.640625 L 114.484375 0 L 22.5 0 Z M 22.5 -138.171875 "/></g></g></g><g fill="#212121" fill-opacity="1"><g transform="translate(2686.365795, 1464.212391)"><g><path d="M 22.5 -138.171875 L 37.109375 -138.171875 L 37.109375 -12.640625 L 114.484375 -12.640625 L 114.484375 0 L 22.5 0 Z M 22.5 -138.171875 "/></g></g></g><g fill="#212121" fill-opacity="1"><g transform="translate(2850.145455, 1464.212391)"><g><path d="M 120.203125 -12.640625 L 120.203125 0 L 22.5 0 L 22.5 -138.171875 L 117.25 -138.171875 L 117.25 -125.546875 L 37.109375 -125.546875 L 37.109375 -76.390625 L 108.5625 -76.390625 L 108.5625 -63.953125 L 37.109375 -63.953125 L 37.109375 -12.640625 Z M 120.203125 -12.640625 "/></g></g></g><g fill="#212121" fill-opacity="1"><g transform="translate(3029.705329, 1464.212391)"><g><path d="M 116.859375 0 L 85.265625 -44.40625 C 81.710938 -44.019531 78.03125 -43.828125 74.21875 -43.828125 L 37.109375 -43.828125 L 37.109375 0 L 22.5 0 L 22.5 -138.171875 L 74.21875 -138.171875 C 91.851562 -138.171875 105.671875 -133.957031 115.671875 -125.53125 C 125.671875 -117.113281 130.671875 -105.535156 130.671875 -90.796875 C 130.671875 -80.003906 127.941406 -70.890625 122.484375 -63.453125 C 117.023438 -56.023438 109.226562 -50.664062 99.09375 -47.375 L 132.84375 0 Z M 73.828125 -56.25 C 87.515625 -56.25 97.972656 -59.273438 105.203125 -65.328125 C 112.441406 -71.390625 116.0625 -79.878906 116.0625 -90.796875 C 116.0625 -101.984375 112.441406 -110.570312 105.203125 -116.5625 C 97.972656 -122.550781 87.515625 -125.546875 73.828125 -125.546875 L 37.109375 -125.546875 L 37.109375 -56.25 Z M 73.828125 -56.25 "/></g></g></g><g fill="#212121" fill-opacity="1"><g transform="translate(3219.916845, 1464.212391)"><g><path d="M 22.5 -138.171875 L 37.109375 -138.171875 L 37.109375 0 L 22.5 0 Z M 22.5 -138.171875 "/></g></g></g><g fill="#212121" fill-opacity="1"><g transform="translate(3327.085342, 1464.212391)"><g><path d="M 109.15625 -36.90625 L 32.171875 -36.90625 L 15.59375 0 L 0.390625 0 L 63.5625 -138.171875 L 77.96875 -138.171875 L 141.140625 0 L 125.734375 0 Z M 103.828125 -48.75 L 70.671875 -122.96875 L 37.5 -48.75 Z M 103.828125 -48.75 "/></g></g></g></svg>